<?xml version="1.0" encoding="UTF-8"?><svg xmlns="http://www.w3.org/2000/svg" viewBox="0 0 1464.72 1008.54"><g id="Layer_6"><path d="M1018.15,590c-9.34,27.41-24.83,44.56-29,49-23.22,24.75-50.07,33.51-73,41-14.52,4.74-27.78,7.6-51,11-42.5,6.22-84.24,9.22-166,11-16.87,.37-40.52,.79-69,1-8.67,14.67-17.33,29.33-26,44h-68c-1.09-1.02-2.63-2.67-4-5-1.87-3.18-2.56-6.18-3-9-1.57-9.98-1.08-23.85-1-26h-26c-1.53,8.69-2.44,15.43-3,20-.5,4.1-.87,7.71-3,12-1.87,3.76-4.27,6.38-6,8h-63c-1.35-1.27-3.23-3.25-5-6-2.38-3.7-3.38-6.95-4-9-3.15-10.5-3.03-25.82-3-28-15.56-2.48-35.95-6.85-59-15-38.73-13.69-65.28-31.07-74-37-14.44-9.81-39.11-26.86-63-57-11.4-14.39-27.5-35.09-37-66-4.7-15.29-6.67-29.47-8-39-2.92-20.98-2.99-37.03-3-49-.01-15.64,.83-35.71,4-59h-20c-1.68-.14-4.94-.67-8-3-5.9-4.5-6.05-11.94-6-14,.03-1.32,.31-6.4,4-11,6.39-7.97,17.06-7.09,18-7h19c.98-5.61,2.28-11.64,4-18,1.25-4.61,2.6-8.95,4-13-8.45-2.74-17.12-5.73-26-9-11.47-4.23-22.4-8.6-32.78-13.04-1.06-.45-1.82-1.72-2.1-2.96-.08-.34-.12-.68-.12-1v-18.96c0-.68,.15-1.34,.42-1.93,.46-1.01,1.28-1.85,2.35-2.31,7.46-3.24,17.9-7.89,30.23-13.8,17.1-8.19,24.59-11.95,38-18,8.48-3.82,19.88-9.09,35.5-14.5,8.5-15.8,21.04-36.26,39-58,11.84-14.33,27.22-32.94,52-51,29.73-21.66,56.59-30.58,92.5-42.5,25.05-8.32,43.28-11.96,57-14,7.36-1.09,16.34-2.16,30-3,21.71-1.33,57.85-2.24,108,3,34.19,3.57,51.29,5.36,75,12,31.24,8.75,54.16,20.2,65,26,30.75,16.46,50.67,33.76,68,49,9.68,8.51,48.17,43.02,88,100,16.4,23.47,36.37,55.53,55,96h34c1.91,.16,4.8,.61,8,2,2.56,1.11,7.15,3.1,10,8,.37,.64,4.57,8.12,1,15-1.86,3.58-5.02,5.44-6,6-2.37,1.36-4.6,1.82-6,2h-27c15.05,32.33,24.72,60.63,31,82,8.04,27.36,14.25,49.03,15,79,.42,16.86,.72,35.35-7,58Z" style="fill:#ff4346;"/></g><g id="Layer_7"><path d="M346.15,205c-2.62-3.71-3.54-7.18-4-9-3.41-13.39,3.68-24.51,4-25,1.26-1.92,5.21-7.73,13-11,1.86-.78,11.53-4.61,22,0,7.77,3.42,11.53,9.54,13,12,1.86,3.12,7.52,13.87,3,26-3.49,9.36-10.9,13.83-13,15-10.91,6.08-21.71,2.77-24,2-2.4-.8-9.2-3.2-14-10Z" style="fill:#171d28;"/><path d="M655.93,188.23c-.13-3.68,.55-7.32,1.96-10.71s3.6-7.12,7.25-10.51c9.1-8.44,20.58-8.12,25-8,4.4,.12,11.28,.31,18,5,10.29,7.18,11.79,19.05,12,21,1.31,11.94-5.03,20.45-7,23-1.86,2.42-7.66,9.94-18,12-11.29,2.24-20.26-3.57-24-6-2.66-1.72-7.41-4.88-11-11-3.16-5.39-4.07-10.77-4.22-14.77Z" style="fill:#171d28;"/></g><g id="Layer_8"><path d="M280.15,292c-.86,1.03-3.27,3.94-7,4-4.78,.07-7.76-4.61-8-5H129.27c-.08-.34-.12-.68-.12-1v-18.96c0-.68,.15-1.34,.42-1.93,45.19,.3,90.39,.6,135.58,.89,.88-.62,2.22-1.43,4-2,2.68-.86,6.43-1.2,9,0,6.48,3.03,7.82,16.99,2,24Z" style="fill:#171d28;"/></g></svg>