<?xml version="1.0" encoding="UTF-8"?><svg xmlns="http://www.w3.org/2000/svg" viewBox="0 0 1578.63 1372.78"><g id="Layer_3"><path d="M1508.62,1205.28c-5.57,18.39-13.49,31.59-18,39-6.03,9.89-12.32,20.23-24,31-14.88,13.72-29.8,20.14-39,24-8.93,3.75-15.83,6.65-26,8-13.41,1.78-28.64,3.81-39-4-2.3-1.73-6.72-5.72-12-5-3.26,.45-5.48,2.5-6,3-3.73,3.61-3.83,8.98-4,11-.48,5.48-3.91,13.22-17,23-22.34,.67-44.67,1.33-67,2h-411c-3.27-4.27-8.55-12.51-10-24-2.85-22.47,11.37-38.25,13-40,2.9-3.12,9.41-10.2,20-13,5.74-1.52,10.44-1.2,13-1,32.06,2.47,48,7,48,7,27.88,7.92,49.13,15.68,50,16,46.47,17.08,57.26,19.57,70,16,.44-.12,.93-.27,1.46-.44,2.81-.89,6.74-2.46,11.19-5.33,.11-.08,.23-.15,.35-.23l-.02-.02c-11.44-10.57-21.92-18.43-29.98-23.98-11.49-7.9-22.06-15.17-36.82-20.83-1.04-.4-2.1-.79-3.18-1.17-5.32-1.88-4.64-1.25-28-7-19.64-4.84-24.06-6.26-39-10,0,0-22.94-5.75-48-11-49.47-10.37-126.82-14.27-142-15-13.19,19.61-23.32,37.34-31,52-7.89,15.06-10.34,21.46-17,33-11.6,20.09-24.49,35.91-36,48h-115c-.51-2.12-1.23-5.23-2-9-5.57-27.32-5.39-48.84-5-67,.92-42.93,2.65-50.17,3-80,.26-21.91-.42-39.72-1-51-3.16-5.11-6.9-7.75-9-9-8.65-5.14-21.05-5.45-29,1-2.6,2.11-4.15,4.47-5,6-.63,10.13-1.41,24.2-2,41-.74,20.77-1.35,38.08-1,60,0,0,.65,41.65-1,72-.23,4.13-.84,13.58-6,24-2.73,5.5-5.85,9.52-8,12h-111c-1.01-2.08-2.46-5.18-4-9-10.8-26.7-10.88-49.84-11-60,0,0-.43-37.21-5-89-1.34-15.12-1.43-10.28-11-77-9.33-65.08-9.34-70.36-15-84-10.73-25.83-25.4-42.28-43-62-18.85-21.12-35.49-34.37-68-60-41.8-32.95-48.05-33.53-73-57-29.7-27.94-40.9-46-46-55-6.1-10.75-15.7-28.03-20-53-5.17-29.94,.3-53.36,2-60,5.55-21.73,15.23-37.6,22-47,.32-.68,.64-1.36,.96-2.03,12.75-27.01,22.92-45.67,30.04-57.97,.3-.51,.56-.96,.8-1.37,1.06-1.82,1.59-2.69,2.2-3.63,11.38-17.69,21.8-21.1,40-38,8.6-7.99,13.67-12.76,19-21,5.87-9.08,8.07-16.55,12-29,8.02-25.43,12.04-38.15,14-43,8.3-20.55,18.91-34.31,31-50,9.42-12.23,16.97-22.03,30-33,7.47-6.3,20.95-16.52,40-25,6.06-2.7,17.89-7.88,34-11,29.54-5.73,53.34-.62,65,2,25.72,5.79,43.57,15.95,54,22,11.04,6.4,24.76,14.36,39,29,11.01,11.33,14.08,18.17,30,33,14.74,13.74,20.9,16.07,26,17,14.43,2.62,26.58-4.89,30-7,11.29-6.98,13.56-14.54,23-27,12.62-16.67,25.91-26.05,40-36,20.71-14.63,38.93-22,49-26,9.69-3.85,26.24-10.32,49-14,6.07-.98,33.34-5.12,69,0,28.47,4.09,49.16,12.19,56,15,5.46,2.24,28.89,12.11,56,33,16.15,12.45,26.65,23.8,47,46,23.75,25.92,25.98,31.27,57,67,9.94,11.45,25.32,29.12,46,51,25.82,27.32,28.55,28.02,54,55,6.78,7.19,6.23,6.77,47,52,36.15,40.12,37.05,40.97,43,48,5.07,6,11.2,13.39,47,60,27.56,35.89,41.52,54.07,50,66,11.32,15.93,8.12,12.24,41,61,30.32,44.98,33.61,48.95,43,65,14.53,24.86,11.78,24.11,29,54,11.61,20.17,13.54,21.67,36,59,19.24,31.98,23.34,40.03,27,48,7.52,16.38,13.32,29.03,17,47,7.93,38.78-.77,69.6-3,77Z" style="fill:#ff4646;"/></g><g id="Layer_7"><path d="M1062.6,1292.26c-.11,.05-.22,.13-.33,.25-4.45,2.87-8.38,4.44-11.19,5.33-11.26-4.18-28.31-19.86-45.51-38.89-3.04-3.5-6.31-7.34-9.77-11.5,14.76,5.66,25.33,12.93,36.82,20.83,8.06,5.55,18.54,13.41,29.98,23.98Z" style="fill:#171d28;"/><path d="M1203.57,944.95c-3.29,2.48-8.22,1.08-12,0-9.81-2.79-16.03-9.02-17-10,0,0-8.34-8.36-48-45-2.93-2.71-15.34-14.08-33-27-8.05-5.89-16.71-12.85-34.57-24.17-23.81-15.1-36.35-21.59-46.43-26.83-11.96-6.22-18.57-9.17-42-18-9.69-3.65-17.78-7.93-29-7-1.4,.12-9.77,.89-17,5-15.71,8.94-19.9,30.17-22,45-7.17,50.57,.09,95.57,1,101,4.92,29.22,11.21,65.33,29,111,3.02,7.76,24.03,60.77,62,114,21.65,30.36,32.48,45.53,41,54,.11,.11,9.74,12.07,29,36,5.42,6.74,11.21,14.14,10,23-.58,4.27-2.95,10.07-8,14,0,0-1.52,1.18-3.97,2.31-11.44-10.57-21.92-18.43-29.98-23.98-11.49-7.9-22.06-15.17-36.82-20.83-9.08-10.95-19.41-24.16-30.23-39.5-30.27-42.9-47.95-79.17-54-92-8.78-18.61-24.24-51.81-36-98-8.72-34.22-11.14-62.81-16-120-.27-3.18-2.91-35.99,1-77,.93-9.8,2.13-18.96,6-30,4.04-11.54,12.46-35.57,34-45,8.64-3.78,16.32-3.87,28-4,16.09-.18,28.53,2.93,36,5,56.31,15.6,103,44,103,44,22.63,13.77,37.22,25.41,58,42,0,0,29.16,23.27,71,75,1.12,1.39,6.74,8.49,9,19,.82,3.82,3.06,14.2-2,18Z" style="fill:#171d28;"/></g><g id="Layer_4"><path d="M1036.46,705.31c-5.41,8.74-18.57,8.94-22,9-14.97,.23-24.98-7.74-39-17-14.7-9.71-30.72-17.26-46-26-29.28-16.75-54.03-24.02-88-34-37.9-11.14-67.74-15.67-77-17-43.9-6.3-77.68-4.81-90-5-97.46-1.53-209.46-1.53-316,0-63.58,.91-154.89,3.76-267,6-1,0-1.96-.02-2.88-.06,12.75-27.01,22.92-45.67,30.04-57.97,.3-.51,.56-.96,.8-1.37,1.98,.1,4.01,.22,6.08,.37,37.44-1.24,92.15-3.19,162.96-5.97,117.81-4.63,134.68-6.07,200-8,156.8-4.65,217.05-1.02,254,2,65.89,5.37,118.05,13.72,171,37,30.61,13.45,51.04,25.97,95,64,4.03,3.48,21.5,14.2,28,34,1.55,4.73,4.2,13.2,0,20Z" style="fill:#171d28;"/></g><g id="Layer_5"><path d="M287,503.78c4.79-1.23,9.3-2.39,14-6,6.35-4.88,8.95-11.04,11-16,3.85-9.29,3.98-17.29,4-21,.07-10.04-2.43-17.37-3-19-1.27-3.6-3.49-9.76-9-16-2.03-2.3-7-7.44-15-11-3.74-1.67-18.51-7.61-34-1-8.96,3.82-14.01,10.07-18,15-3.37,4.17-8.69,10.75-11,21-3.25,14.44,1.69,26.35,4,31,1.57,3.17,5.17,10.22,13,16,7.95,5.87,15.81,7.15,21,8,4.61,.75,13.08,1.55,23-1Z" style="fill:#171d28;"/></g><g id="Layer_6"><path d="M776,470.78c-1.48-6.5-1.17-12.26-1-15,.29-4.76,1.58-9.61,4-15,2.89-6.46,6.23-11.12,12-16,4.79-4.05,8.69-6.49,15-9,6.14-2.45,11.19-2.73,17-3,7.78-.37,15.74-.74,25,3,9.66,3.9,15.42,10.14,18,13,7.8,8.64,10.62,17.49,12,22,1.85,6.02,4.84,15.79,2,28-.5,2.16-3.22,13.12-13,23-9.06,9.15-19.05,12.19-22,13-15.59,4.28-28.71-.59-34-3-9.12-4.16-14.37-9.87-20-16-5.6-6.09-12.38-13.47-15-25Z" style="fill:#171d28;"/></g></svg>